<svg width="36" height="36" viewBox="0 0 36 36" fill="none" xmlns="http://www.w3.org/2000/svg">
<path d="M35.5642 0.435837C36.0291 0.807747 36.122 1.27264 35.8431 1.83051L21.0596 35.1632C20.7806 35.7211 20.3622 36 19.8044 36C19.2465 36 18.8746 35.7211 18.6886 35.1632L13.2494 22.7506L0.836804 17.3114C0.278935 17.1254 0 16.7535 0 16.1956C0 15.6378 0.278935 15.2194 0.836804 14.9404L34.1695 0.156898C34.6344 -0.122036 35.0993 -0.0290565 35.5642 0.435837ZM4.60242 16.0562L14.7835 20.5191C15.1554 20.6121 15.3879 20.8446 15.4809 21.2165L19.8044 31.3976L32.0775 3.92252L4.60242 16.0562Z" fill="#05B171"/>
</svg>
