<svg width="43" height="43" viewBox="0 0 43 43" fill="none" xmlns="http://www.w3.org/2000/svg">
<path d="M0.00878906 9.45934C0.00878906 8.31268 0.390852 7.33323 1.15498 6.52101C1.9191 5.70879 2.87426 5.35046 4.02045 5.44601H28.2337C29.3799 5.35046 30.335 5.70879 31.0992 6.52101C31.8633 7.33323 32.2454 8.31268 32.2454 9.45934V13.4727H34.9676C36.3048 13.4727 37.3554 13.9505 38.1196 14.906L42.1312 19.9227C42.7043 20.6871 42.9909 21.5471 42.9909 22.5027V28.236C42.9909 29.3827 42.6088 30.3382 41.8447 31.1027C41.0806 31.8671 40.1254 32.2493 38.9792 32.2493H37.6898C37.6898 33.7782 37.1644 35.0443 36.1137 36.0477C35.0631 37.051 33.7736 37.5527 32.2454 37.5527C30.7171 37.5527 29.4515 37.051 28.4486 36.0477C27.4457 35.0443 26.9442 33.7782 26.9442 32.2493H13.4765C13.4765 33.2049 13.2138 34.1127 12.6885 34.9727C12.1632 35.8327 11.4946 36.5016 10.6827 36.9793C9.87079 37.4571 8.96339 37.6721 7.96048 37.6243C6.95756 37.5766 6.05016 37.3138 5.23828 36.836C4.42639 36.3582 3.78166 35.6893 3.30408 34.8293C2.8265 33.9693 2.63547 33.0138 2.73099 31.9627C1.87135 31.676 1.20274 31.1982 0.725157 30.5293C0.247578 29.8605 0.00878906 29.096 0.00878906 28.236V9.45934ZM3.44736 29.3827C3.92494 28.6182 4.59355 27.9971 5.45319 27.5193C6.31283 27.0416 7.22023 26.8266 8.17539 26.8743C9.13054 26.9221 10.0141 27.1849 10.8259 27.6627C11.6378 28.1405 12.2826 28.7616 12.7601 29.526H27.6606C28.1382 28.7616 28.759 28.1405 29.5232 27.6627V9.45934C29.5232 9.07712 29.4038 8.74268 29.165 8.45601C28.9262 8.16934 28.6158 8.02601 28.2337 8.02601H4.02045C3.63839 8.02601 3.32796 8.16934 3.08917 8.45601C2.85038 8.74268 2.73099 9.07712 2.73099 9.45934V28.236C2.73099 28.8093 2.96978 29.1916 3.44736 29.3827ZM32.2454 26.8027C33.2005 26.8982 34.084 27.1849 34.8959 27.6627C35.7078 28.1405 36.3525 28.7616 36.8301 29.526H38.9792C39.3613 29.526 39.6717 29.4066 39.9105 29.1677C40.1493 28.9288 40.2687 28.6182 40.2687 28.236V22.5027C40.2687 22.1205 40.1732 21.8338 39.9821 21.6427L35.9705 16.626C35.7794 16.3393 35.4451 16.196 34.9676 16.196H32.2454V26.8027ZM8.03211 29.526C7.26799 29.526 6.64713 29.7888 6.16956 30.3143C5.69198 30.8399 5.45319 31.4849 5.45319 32.2493C5.45319 33.0138 5.69198 33.6588 6.16956 34.1843C6.64713 34.7099 7.26799 34.9727 8.03211 34.9727C8.79624 34.9727 9.44097 34.7099 9.96631 34.1843C10.4916 33.6588 10.7543 33.0138 10.7543 32.2493C10.7543 31.4849 10.4916 30.8399 9.96631 30.3143C9.44097 29.7888 8.79624 29.526 8.03211 29.526ZM32.2454 29.526C31.4812 29.526 30.8365 29.7888 30.3112 30.3143C29.7858 30.8399 29.5232 31.4849 29.5232 32.2493C29.5232 33.0138 29.7858 33.6588 30.3112 34.1843C30.8365 34.7099 31.4812 34.9727 32.2454 34.9727C33.0095 34.9727 33.6542 34.7099 34.1796 34.1843C34.7049 33.6588 34.9676 33.0138 34.9676 32.2493C34.9676 31.4849 34.7049 30.8399 34.1796 30.3143C33.6542 29.7888 33.0095 29.526 32.2454 29.526Z" fill="#9932E7"/>
</svg>
