<svg width="32" height="32" viewBox="0 0 32 32" fill="none" xmlns="http://www.w3.org/2000/svg">
<path d="M11.52 2.13333C11.7333 2.27555 11.8756 2.48889 11.9467 2.77333C12.0178 3.05778 11.9822 3.30667 11.84 3.52L6.72 11.9467H25.28L20.16 3.52C20.0178 3.30667 19.9822 3.05778 20.0533 2.77333C20.1244 2.48889 20.2667 2.27555 20.48 2.13333C20.6933 1.99111 20.9422 1.95555 21.2267 2.02667C21.5111 2.09778 21.7244 2.24 21.8667 2.45333L27.52 11.9467H29.9733C30.5422 11.9467 31.0222 12.1422 31.4133 12.5333C31.8044 12.9244 32 13.4044 32 13.9733V16C32 16.5689 31.8044 17.0489 31.4133 17.44C31.0222 17.8311 30.5422 18.0267 29.9733 18.0267V26.9867C29.9733 28.4089 29.4933 29.6 28.5333 30.56C27.5733 31.52 26.3822 32 24.96 32H7.04C5.61778 32 4.42667 31.52 3.46667 30.56C2.50667 29.6 2.02667 28.4089 2.02667 26.9867V18.0267C1.45778 18.0267 0.977778 17.8311 0.586667 17.44C0.195556 17.0489 0 16.5689 0 16V13.9733C0 13.4044 0.195556 12.9244 0.586667 12.5333C0.977778 12.1422 1.45778 11.9467 2.02667 11.9467H4.48L10.1333 2.45333C10.2756 2.24 10.4889 2.09778 10.7733 2.02667C11.0578 1.95555 11.3067 1.99111 11.52 2.13333ZM4.05333 18.0267V26.9867C4.05333 27.84 4.33778 28.5511 4.90667 29.12C5.47556 29.6889 6.18667 29.9733 7.04 29.9733H24.96C25.8133 29.9733 26.5422 29.6889 27.1467 29.12C27.7511 28.5511 28.0178 27.84 27.9467 26.9867V18.0267H4.05333ZM2.02667 13.9733V16H29.9733V13.9733H2.02667ZM8 19.9467C8.28444 20.0178 8.51556 20.1422 8.69333 20.32C8.87111 20.4978 8.96 20.7289 8.96 21.0133V26.9867C8.96 27.2711 8.87111 27.5022 8.69333 27.68C8.51556 27.8578 8.28444 27.9467 8 27.9467C7.71556 27.9467 7.48444 27.8578 7.30667 27.68C7.12889 27.5022 7.04 27.2711 7.04 26.9867V21.0133C7.04 20.7289 7.12889 20.48 7.30667 20.2667C7.48444 20.0533 7.71556 19.9467 8 19.9467ZM12.0533 19.9467C12.2667 20.0178 12.48 20.1422 12.6933 20.32C12.9067 20.4978 13.0133 20.7289 13.0133 21.0133V26.9867C13.0133 27.2711 12.9067 27.5022 12.6933 27.68C12.48 27.8578 12.2489 27.9467 12 27.9467C11.7511 27.9467 11.52 27.8578 11.3067 27.68C11.0933 27.5022 10.9867 27.2711 10.9867 26.9867V21.0133C10.9867 20.7289 11.0933 20.48 11.3067 20.2667C11.52 20.0533 11.7689 19.9467 12.0533 19.9467ZM16 19.9467C16.2844 20.0178 16.5156 20.1422 16.6933 20.32C16.8711 20.4978 16.96 20.7289 16.96 21.0133V26.9867C16.96 27.2711 16.8711 27.5022 16.6933 27.68C16.5156 27.8578 16.2844 27.9467 16 27.9467C15.7156 27.9467 15.4844 27.8578 15.3067 27.68C15.1289 27.5022 15.04 27.2711 15.04 26.9867V21.0133C15.04 20.7289 15.1289 20.48 15.3067 20.2667C15.4844 20.0533 15.7156 19.9467 16 19.9467ZM20.0533 19.9467C20.2667 20.0178 20.48 20.1422 20.6933 20.32C20.9067 20.4978 21.0133 20.7289 21.0133 21.0133V26.9867C21.0133 27.2711 20.9067 27.5022 20.6933 27.68C20.48 27.8578 20.2489 27.9467 20 27.9467C19.7511 27.9467 19.52 27.8578 19.3067 27.68C19.0933 27.5022 18.9867 27.2711 18.9867 26.9867V21.0133C18.9867 20.7289 19.0933 20.48 19.3067 20.2667C19.52 20.0533 19.7333 19.9467 19.9467 19.9467H20.0533ZM24 19.9467C24.2844 20.0178 24.5156 20.1422 24.6933 20.32C24.8711 20.4978 24.96 20.7289 24.96 21.0133V26.9867C24.96 27.2711 24.8711 27.5022 24.6933 27.68C24.5156 27.8578 24.2844 27.9467 24 27.9467C23.7156 27.9467 23.4844 27.8578 23.3067 27.68C23.1289 27.5022 23.04 27.2711 23.04 26.9867V21.0133C23.04 20.7289 23.1289 20.48 23.3067 20.2667C23.4844 20.0533 23.7156 19.9467 24 19.9467Z" fill="black"/>
</svg>
