<svg width="34" height="34" viewBox="0 0 34 34" fill="none" xmlns="http://www.w3.org/2000/svg">
<path d="M4.08529 1.02047C4.46291 1.02047 4.765 1.1338 4.99158 1.36047L6.35101 2.72047L7.71044 1.36047C7.93702 1.1338 8.20135 1.02047 8.50345 1.02047C8.80554 1.02047 9.06988 1.1338 9.29645 1.36047L10.6559 2.72047L12.0153 1.36047C12.2419 1.1338 12.4873 1.02047 12.7517 1.02047C13.016 1.02047 13.2615 1.1338 13.488 1.36047L14.8475 2.72047L16.2069 1.36047C16.4335 1.1338 16.6978 1.02047 16.9999 1.02047C17.302 1.02047 17.5663 1.1338 17.7929 1.36047L19.1523 2.72047L20.5118 1.36047C20.7383 1.1338 20.9838 1.02047 21.2481 1.02047C21.5125 1.02047 21.7579 1.1338 21.9845 1.36047L23.3439 2.72047L24.7034 1.36047C24.9299 1.1338 25.1943 1.02047 25.4964 1.02047C25.7985 1.02047 26.0628 1.1338 26.2894 1.36047L27.6488 2.72047L29.0082 1.36047C29.2348 1.1338 29.5369 1.03936 29.9145 1.07714C30.2921 1.11491 30.5565 1.32269 30.7075 1.70047L31.7271 3.74047C31.8026 3.89158 31.8404 4.04269 31.8404 4.1938V29.6938C31.8404 29.9205 31.8026 30.1094 31.7271 30.2605L30.7075 32.3005C30.5565 32.6782 30.2921 32.886 29.9145 32.9238C29.5369 32.9616 29.2348 32.8671 29.0082 32.6405L27.6488 31.2805L26.2894 32.6405C26.0628 32.8671 25.7985 32.9805 25.4964 32.9805C25.1943 32.9805 24.9299 32.8671 24.7034 32.6405L23.3439 31.2805L21.9845 32.6405C21.7579 32.8671 21.5125 32.9805 21.2481 32.9805C20.9838 32.9805 20.7383 32.8671 20.5118 32.6405L19.1523 31.2805L17.7929 32.6405C17.5663 32.8671 17.302 32.9805 16.9999 32.9805C16.6978 32.9805 16.4335 32.8671 16.2069 32.6405L14.8475 31.2805L13.488 32.6405C13.2615 32.8671 13.016 32.9805 12.7517 32.9805C12.4873 32.9805 12.2419 32.8671 12.0153 32.6405L10.6559 31.2805L9.29645 32.6405C9.06988 32.8671 8.80554 32.9805 8.50345 32.9805C8.20135 32.9805 7.93702 32.8671 7.71044 32.6405L6.35101 31.2805L4.99158 32.6405C4.765 32.8671 4.46291 32.9616 4.08529 32.9238C3.70767 32.886 3.44333 32.6782 3.29229 32.3005L2.27271 30.2605C2.19719 30.1094 2.15942 29.9205 2.15942 29.6938V4.1938C2.15942 4.04269 2.19719 3.89158 2.27271 3.74047L3.29229 1.70047C3.44333 1.32269 3.70767 1.09603 4.08529 1.02047ZM4.53843 3.96714L4.31186 4.5338V29.4671L4.53843 30.0338L5.67129 29.0138C5.82234 28.7871 6.04891 28.6738 6.35101 28.6738C6.65311 28.6738 6.91744 28.7871 7.14401 29.0138L8.50345 30.3738L9.86288 29.0138C10.0895 28.7871 10.3538 28.6738 10.6559 28.6738C10.958 28.6738 11.1846 28.7871 11.3356 29.0138L12.8083 30.3738L14.1678 29.0138C14.3188 28.7871 14.5454 28.6738 14.8475 28.6738C15.1496 28.6738 15.4139 28.7871 15.6405 29.0138L16.9999 30.3738L18.3593 29.0138C18.5859 28.7871 18.8502 28.6738 19.1523 28.6738C19.4544 28.6738 19.681 28.7871 19.8321 29.0138L21.3048 30.3738L22.6642 29.0138C22.8153 28.7871 23.0418 28.6738 23.3439 28.6738C23.646 28.6738 23.9104 28.7871 24.1369 29.0138L25.4964 30.3738L26.8558 29.0138C27.0824 28.7871 27.3467 28.6738 27.6488 28.6738C27.9509 28.6738 28.1775 28.7871 28.3285 29.0138L29.4614 30.0338L29.8012 29.4671V4.5338L29.4614 3.96714L28.3285 4.98714C28.1775 5.2138 27.9509 5.32714 27.6488 5.32714C27.3467 5.32714 27.0824 5.2138 26.8558 4.98714L25.4964 3.62714L24.1369 4.98714C23.9104 5.2138 23.646 5.32714 23.3439 5.32714C23.0418 5.32714 22.8153 5.2138 22.6642 4.98714L21.3048 3.62714L19.8321 4.98714C19.681 5.2138 19.4544 5.32714 19.1523 5.32714C18.8502 5.32714 18.5859 5.2138 18.3593 4.98714L16.9999 3.62714L15.6405 4.98714C15.4139 5.2138 15.1496 5.32714 14.8475 5.32714C14.5454 5.32714 14.3188 5.2138 14.1678 4.98714L12.8083 3.62714L11.3356 4.98714C11.1846 5.2138 10.958 5.32714 10.6559 5.32714C10.3538 5.32714 10.0895 5.2138 9.86288 4.98714L8.50345 3.62714L7.14401 4.98714C6.91744 5.2138 6.65311 5.32714 6.35101 5.32714C6.04891 5.32714 5.82234 5.2138 5.67129 4.98714L4.53843 3.96714ZM6.35101 9.52047C6.35101 9.21825 6.4643 8.97269 6.69087 8.7838C6.91744 8.59491 7.18178 8.50047 7.48387 8.50047H20.1719C20.474 8.50047 20.7383 8.59491 20.9649 8.7838C21.1915 8.97269 21.3048 9.21825 21.3048 9.52047C21.3048 9.82269 21.1915 10.0871 20.9649 10.3138C20.7383 10.5405 20.474 10.6538 20.1719 10.6538H7.48387C7.18178 10.6538 6.91744 10.5405 6.69087 10.3138C6.4643 10.0871 6.35101 9.82269 6.35101 9.52047ZM6.35101 13.8271C6.35101 13.5249 6.4643 13.2605 6.69087 13.0338C6.91744 12.8071 7.18178 12.6938 7.48387 12.6938H20.1719C20.474 12.6938 20.7383 12.8071 20.9649 13.0338C21.1915 13.2605 21.3048 13.5249 21.3048 13.8271C21.3048 14.1294 21.1915 14.3749 20.9649 14.5638C20.7383 14.7527 20.474 14.8471 20.1719 14.8471H7.48387C7.18178 14.8471 6.91744 14.7527 6.69087 14.5638C6.4643 14.3749 6.35101 14.1294 6.35101 13.8271ZM6.35101 18.0205C6.35101 17.7182 6.4643 17.4727 6.69087 17.2838C6.91744 17.0949 7.18178 17.0005 7.48387 17.0005H20.1719C20.474 17.0005 20.7383 17.0949 20.9649 17.2838C21.1915 17.4727 21.3048 17.7182 21.3048 18.0205C21.3048 18.3227 21.1915 18.5871 20.9649 18.8138C20.7383 19.0405 20.474 19.1538 20.1719 19.1538H7.48387C7.18178 19.1538 6.91744 19.0405 6.69087 18.8138C6.4643 18.5871 6.35101 18.3227 6.35101 18.0205ZM6.35101 22.3271C6.35101 22.0249 6.4643 21.7605 6.69087 21.5338C6.91744 21.3071 7.18178 21.1938 7.48387 21.1938H20.1719C20.474 21.2694 20.7383 21.4016 20.9649 21.5905C21.1915 21.7794 21.3048 22.0249 21.3048 22.3271C21.3048 22.6294 21.1915 22.8749 20.9649 23.0638C20.7383 23.2527 20.474 23.3471 20.1719 23.3471H7.48387C7.18178 23.3471 6.91744 23.2527 6.69087 23.0638C6.4643 22.8749 6.35101 22.6294 6.35101 22.3271ZM23.3439 9.52047C23.3439 9.21825 23.4572 8.97269 23.6838 8.7838C23.9104 8.59491 24.1747 8.50047 24.4768 8.50047H26.5159C26.818 8.50047 27.0824 8.59491 27.3089 8.7838C27.5355 8.97269 27.6488 9.21825 27.6488 9.52047C27.6488 9.82269 27.5355 10.0871 27.3089 10.3138C27.0824 10.5405 26.818 10.6538 26.5159 10.6538H24.4768C24.1747 10.6538 23.9104 10.5405 23.6838 10.3138C23.4572 10.0871 23.3439 9.82269 23.3439 9.52047ZM23.3439 13.8271C23.3439 13.5249 23.4572 13.2605 23.6838 13.0338C23.9104 12.8071 24.1747 12.6938 24.4768 12.6938H26.5159C26.818 12.6938 27.0824 12.8071 27.3089 13.0338C27.5355 13.2605 27.6488 13.5249 27.6488 13.8271C27.6488 14.1294 27.5355 14.3749 27.3089 14.5638C27.0824 14.7527 26.818 14.8471 26.5159 14.8471H24.4768C24.1747 14.8471 23.9104 14.7527 23.6838 14.5638C23.4572 14.3749 23.3439 14.1294 23.3439 13.8271ZM23.3439 18.0205C23.3439 17.7182 23.4572 17.4727 23.6838 17.2838C23.9104 17.0949 24.1747 17.0005 24.4768 17.0005H26.5159C26.818 17.0005 27.0824 17.0949 27.3089 17.2838C27.5355 17.4727 27.6488 17.7182 27.6488 18.0205C27.6488 18.3227 27.5355 18.5871 27.3089 18.8138C27.0824 19.0405 26.818 19.1538 26.5159 19.1538H24.4768C24.1747 19.1538 23.9104 19.0405 23.6838 18.8138C23.4572 18.5871 23.3439 18.3227 23.3439 18.0205ZM23.3439 22.3271C23.3439 22.0249 23.4572 21.7605 23.6838 21.5338C23.9104 21.3071 24.1747 21.1938 24.4768 21.1938H26.5159C26.818 21.2694 27.0824 21.4016 27.3089 21.5905C27.5355 21.7794 27.6488 22.0249 27.6488 22.3271C27.6488 22.6294 27.5355 22.8749 27.3089 23.0638C27.0824 23.2527 26.818 23.3471 26.5159 23.3471H24.4768C24.1747 23.3471 23.9104 23.2527 23.6838 23.0638C23.4572 22.8749 23.3439 22.6294 23.3439 22.3271Z" fill="#FAAE42"/>
</svg>
