<svg width="35" height="35" viewBox="0 0 35 35" fill="none" xmlns="http://www.w3.org/2000/svg">
<path d="M7.48092 24.9809H2.53817V32.4618H7.48092V24.9809ZM20.0382 14.9618H14.9618V32.4618H20.0382V14.9618ZM32.5954 2.40458V32.4618H27.5191V2.40458H32.5954ZM27.5191 0C26.8066 0 26.2055 0.244911 25.7157 0.73473C25.2258 1.22455 24.9809 1.78117 24.9809 2.40458V32.4618C24.9809 33.1743 25.2258 33.7754 25.7157 34.2653C26.2055 34.7551 26.8066 35 27.5191 35H32.5954C33.2188 35 33.7754 34.7551 34.2653 34.2653C34.7551 33.7754 35 33.1743 35 32.4618V2.40458C35 1.78117 34.7551 1.22455 34.2653 0.73473C33.7754 0.244911 33.2188 0 32.5954 0H27.5191ZM12.5573 14.9618C12.4682 14.2494 12.6686 13.6482 13.1584 13.1584C13.6482 12.6686 14.2494 12.4237 14.9618 12.4237H20.0382C20.7506 12.4237 21.3518 12.6686 21.8416 13.1584C22.3314 13.6482 22.5763 14.2494 22.5763 14.9618V32.4618C22.5763 33.1743 22.3314 33.7754 21.8416 34.2653C21.3518 34.7551 20.7506 35 20.0382 35H14.9618C14.2494 35 13.6705 34.7551 13.2252 34.2653C12.7799 33.7754 12.5573 33.1743 12.5573 32.4618V14.9618ZM0 24.9809C0 24.2684 0.244911 23.6673 0.734733 23.1775C1.22455 22.6877 1.78117 22.4427 2.40458 22.4427H7.48092C8.19338 22.5318 8.79453 22.799 9.28435 23.2443C9.77417 23.6896 10.0191 24.2684 10.0191 24.9809V32.4618C10.0191 33.1743 9.77417 33.7754 9.28435 34.2653C8.79453 34.7551 8.19338 35 7.48092 35H2.53817C1.8257 35 1.22455 34.7551 0.734733 34.2653C0.244911 33.7754 0 33.1743 0 32.4618V24.9809Z" fill="#25C2E3"/>
</svg>
