<svg width="13" height="14" viewBox="0 0 13 14" fill="none" xmlns="http://www.w3.org/2000/svg">
<path d="M6.40461 12.2949C6.5135 12.2949 6.60197 12.2609 6.67003 12.1928C6.73808 12.1248 6.77211 12.0363 6.77211 11.9274V2.90326L9.18128 5.31242C9.26294 5.39409 9.35822 5.43492 9.46711 5.43492C9.576 5.43492 9.66447 5.39409 9.73253 5.31242C9.80058 5.23076 9.83461 5.13548 9.83461 5.02659C9.83461 4.9177 9.80739 4.82242 9.75294 4.74076L6.69044 1.67826C6.60878 1.62381 6.5135 1.59659 6.40461 1.59659C6.29572 1.59659 6.20044 1.62381 6.11878 1.67826L3.05628 4.74076C3.00183 4.82242 2.97461 4.9177 2.97461 5.02659C2.97461 5.13548 3.00864 5.23076 3.07669 5.31242C3.14475 5.39409 3.23322 5.43492 3.34211 5.43492C3.451 5.43492 3.54628 5.39409 3.62794 5.31242L6.03711 2.90326V11.9274C6.03711 12.0363 6.07114 12.1248 6.13919 12.1928C6.20725 12.2609 6.29572 12.2949 6.40461 12.2949Z" fill="#05B171"/>
</svg>
