<svg width="33" height="26" viewBox="0 0 33 26" fill="none" xmlns="http://www.w3.org/2000/svg">
<path d="M28.3834 2.97273C28.8812 2.97273 29.3256 3.16829 29.7167 3.5594C30.1079 3.95051 30.3034 4.43051 30.3034 4.9994V20.9994C30.3034 21.5683 30.1079 22.0483 29.7167 22.4394C29.3256 22.8305 28.8812 23.0261 28.3834 23.0261H4.38341C3.81452 23.0261 3.33452 22.8305 2.94341 22.4394C2.5523 22.0483 2.35674 21.5683 2.35674 20.9994V4.9994C2.35674 4.43051 2.5523 3.95051 2.94341 3.5594C3.33452 3.16829 3.77897 2.97273 4.27674 2.97273H28.3834ZM4.38341 0.946068C3.24563 0.946068 2.28563 1.33718 1.50341 2.1194C0.721189 2.90162 0.330078 3.86162 0.330078 4.9994V20.9994C0.330078 22.1372 0.721189 23.0972 1.50341 23.8794C2.28563 24.6616 3.21008 25.0527 4.27674 25.0527H28.3834C29.4501 24.9816 30.3745 24.5727 31.1567 23.8261C31.939 23.0794 32.3301 22.1372 32.3301 20.9994V4.9994C32.3301 3.86162 31.939 2.90162 31.1567 2.1194C30.3745 1.33718 29.4145 0.946068 28.2767 0.946068H4.38341ZM4.38341 7.98607C4.38341 7.70162 4.4723 7.47051 4.65008 7.29273C4.82786 7.11496 5.05897 7.02607 5.34341 7.02607H9.29008C9.57452 7.02607 9.82341 7.11496 10.0367 7.29273C10.2501 7.47051 10.3567 7.70162 10.3567 7.98607V10.0127C10.3567 10.2972 10.2501 10.5283 10.0367 10.7061C9.82341 10.8838 9.57452 10.9727 9.29008 10.9727H5.34341C5.05897 10.9727 4.82786 10.8838 4.65008 10.7061C4.4723 10.5283 4.38341 10.2972 4.38341 10.0127V7.98607ZM4.38341 13.9594C4.38341 13.675 4.4723 13.4438 4.65008 13.2661C4.82786 13.0883 5.05897 12.9994 5.34341 12.9994H15.3701C15.6545 12.9994 15.8856 13.0883 16.0634 13.2661C16.2412 13.4438 16.3301 13.675 16.3301 13.9594C16.3301 14.2438 16.2412 14.4927 16.0634 14.7061C15.8856 14.9194 15.6545 15.0261 15.3701 15.0261H5.34341C5.05897 15.0261 4.82786 14.9194 4.65008 14.7061C4.4723 14.4927 4.38341 14.2438 4.38341 13.9594ZM4.38341 18.0127C4.38341 17.7283 4.4723 17.4794 4.65008 17.2661C4.82786 17.0527 5.05897 16.9461 5.34341 16.9461H7.37008C7.65452 17.0172 7.88563 17.1416 8.06341 17.3194C8.24119 17.4972 8.33008 17.7283 8.33008 18.0127C8.33008 18.2972 8.24119 18.5283 8.06341 18.7061C7.88563 18.8838 7.65452 18.9727 7.37008 18.9727H5.34341C5.05897 18.9727 4.82786 18.8838 4.65008 18.7061C4.4723 18.5283 4.38341 18.2972 4.38341 18.0127ZM10.3567 18.0127C10.3567 17.7283 10.4456 17.4794 10.6234 17.2661C10.8012 17.0527 11.0323 16.9461 11.3167 16.9461H13.3434C13.6279 17.0172 13.859 17.1416 14.0367 17.3194C14.2145 17.4972 14.3034 17.7283 14.3034 18.0127C14.3034 18.2972 14.2145 18.5283 14.0367 18.7061C13.859 18.8838 13.6279 18.9727 13.3434 18.9727H11.3167C11.0323 18.9727 10.8012 18.8838 10.6234 18.7061C10.4456 18.5283 10.3567 18.2972 10.3567 18.0127ZM16.3301 18.0127C16.3301 17.7283 16.419 17.4794 16.5967 17.2661C16.7745 17.0527 17.0056 16.9461 17.2901 16.9461H19.3167C19.6012 17.0172 19.8501 17.1416 20.0634 17.3194C20.2767 17.4972 20.3834 17.7283 20.3834 18.0127C20.3834 18.2972 20.2767 18.5283 20.0634 18.7061C19.8501 18.8838 19.6012 18.9727 19.3167 18.9727H17.2901C17.0056 18.9727 16.7745 18.8838 16.5967 18.7061C16.419 18.5283 16.3301 18.2972 16.3301 18.0127ZM22.3034 18.0127C22.3034 17.7283 22.4101 17.4794 22.6234 17.2661C22.8367 17.0527 23.0856 16.9461 23.3701 16.9461H25.2901C25.5745 17.0172 25.8234 17.1416 26.0367 17.3194C26.2501 17.4972 26.3567 17.7283 26.3567 18.0127C26.3567 18.2972 26.2501 18.5283 26.0367 18.7061C25.8234 18.8838 25.5745 18.9727 25.2901 18.9727H23.3701C23.0856 18.9727 22.8367 18.8838 22.6234 18.7061C22.4101 18.5283 22.3034 18.2972 22.3034 18.0127Z" fill="black"/>
</svg>
